<svg xmlns="http://www.w3.org/2000/svg" viewBox="0 0 639.33 196.75"><defs><style>.bcb4d72a-f0a5-41a0-b007-2e7660826cf1{fill:#e5c1dc;opacity:0.61;}.a77d39a1-877c-4342-9703-1331648761cc{fill:#f2e4ef;}.bf9dfa3d-e544-4bcb-94ed-64c4127d1cdd{fill:#cc8bc0;}.b7cb4dd1-67de-46f6-86a0-eed0063a223b{fill:#f2d49b;}.a140051b-42d3-43c7-82ab-ce5aac994eb9,.a2edd164-0d8f-4fdf-9ebd-47422b3678e9,.a62b7d16-7df3-473c-abd7-f080d36e0cd3,.aaf59814-d2e2-4427-b77f-7cc3ad3b108f,.b7cb4dd1-67de-46f6-86a0-eed0063a223b,.e70f46f3-ca6b-4a8b-85ca-69c18464de34,.e8c0491e-e5eb-4140-9d2b-a003822ba1ae,.f9564b29-f1dd-463f-a0a4-6314e98b2c01{stroke:#000;stroke-linecap:round;stroke-linejoin:round;}.a140051b-42d3-43c7-82ab-ce5aac994eb9,.a62b7d16-7df3-473c-abd7-f080d36e0cd3,.aaf59814-d2e2-4427-b77f-7cc3ad3b108f,.b7cb4dd1-67de-46f6-86a0-eed0063a223b,.e70f46f3-ca6b-4a8b-85ca-69c18464de34,.e8c0491e-e5eb-4140-9d2b-a003822ba1ae{stroke-width:1.06px;}.a140051b-42d3-43c7-82ab-ce5aac994eb9{fill:#fff;}.e8c0491e-e5eb-4140-9d2b-a003822ba1ae{fill:#f98aac;}.aaf59814-d2e2-4427-b77f-7cc3ad3b108f{fill:#aa714d;}.a62b7d16-7df3-473c-abd7-f080d36e0cd3{fill:none;}.e70f46f3-ca6b-4a8b-85ca-69c18464de34{fill:#f1e16f;}.bc087e80-90a8-4996-b0a0-41388fa5b265{opacity:0.08;}.a449d751-43d2-48ef-843f-9de5c9cd590b,.a44bd6d2-7a4f-425e-856b-dd648a30f6cd{opacity:0.1;}.f9564b29-f1dd-463f-a0a4-6314e98b2c01{fill:#f2f2f2;}.a2edd164-0d8f-4fdf-9ebd-47422b3678e9,.f9564b29-f1dd-463f-a0a4-6314e98b2c01{stroke-width:0.73px;}.a2edd164-0d8f-4fdf-9ebd-47422b3678e9{fill:#72dcca;}</style></defs><g id="e888d25d-f23d-4c98-951b-724fc3e70d9c" data-name="Calque 9"><path class="bcb4d72a-f0a5-41a0-b007-2e7660826cf1" d="M115.85,6.84a89.34,89.34,0,1,0,89.34,89.34A89.34,89.34,0,0,0,115.85,6.84Zm0,160.61a71.27,71.27,0,1,1,71.27-71.27A71.27,71.27,0,0,1,115.85,167.45Z"/><path class="a77d39a1-877c-4342-9703-1331648761cc" d="M115.85,40.9a55.28,55.28,0,1,0,55.28,55.28A55.28,55.28,0,0,0,115.85,40.9Zm0,99.38A44.1,44.1,0,1,1,160,96.18,44.1,44.1,0,0,1,115.85,140.28Z"/><path class="bf9dfa3d-e544-4bcb-94ed-64c4127d1cdd" d="M209.85,133.44a11.63,11.63,0,0,1-3.23-8.61,12,12,0,0,1,2.77-7.9,9.19,9.19,0,0,1,7.48-3.36,14.4,14.4,0,0,1,5.92,1.05q2.31,1,2.31,4.58a13.09,13.09,0,0,1-.5,3.36,10.85,10.85,0,0,0-2.61-1.72,6.16,6.16,0,0,0-2.43-.47,5.35,5.35,0,0,0-4.33,1.85,6.56,6.56,0,0,0-1.56,4.37,5.4,5.4,0,0,0,1.77,4.41,6,6,0,0,0,3.95,1.47,6.63,6.63,0,0,0,3.4-.8,6.84,6.84,0,0,0,2.48-3,33,33,0,0,0,2.1-6.51l13.19-60a18.43,18.43,0,0,0-8.74,7,20.31,20.31,0,0,0-3.11,11.43,11.07,11.07,0,0,0,.59,4.33,7.59,7.59,0,0,1,.59,1.38q-4.54,0-6.76-1.89c-1.49-1.26-2.23-3.34-2.23-6.26q0-5.37,4.41-10.46a35,35,0,0,1,25.08-11.38h3.36l-12.6,59.65q-2.19,10.33-7.23,15.54t-14.87,5.21Q213.08,136.67,209.85,133.44Z"/><path class="bf9dfa3d-e544-4bcb-94ed-64c4127d1cdd" d="M252.66,116.43q-3.61-3.2-3.62-10.09a40,40,0,0,1,2.36-12.68A29.84,29.84,0,0,1,259,81.6a18,18,0,0,1,13.1-5.08q10.76,0,10.76,13.44V90a3.13,3.13,0,0,0,.92.09,17.3,17.3,0,0,0,6.39-1.47,32.11,32.11,0,0,0,6.55-3.57l.76,2.27a20.34,20.34,0,0,1-6.35,4.41,32.77,32.77,0,0,1-8.52,2.56,38,38,0,0,1-3.45,13.36,22.69,22.69,0,0,1-7.14,8.82,16.06,16.06,0,0,1-9.49,3.11Q256.27,119.62,252.66,116.43Zm17.22-6.68a20.76,20.76,0,0,0,3.53-6.31,40.46,40.46,0,0,0,2.18-8.86c-1.51-.33-2.27-1.51-2.27-3.53,0-2.29.87-3.81,2.61-4.53a8.62,8.62,0,0,0-.84-3.83,2.57,2.57,0,0,0-2.35-1c-1.85,0-3.65,1.35-5.38,4a35.32,35.32,0,0,0-4.2,9.66,36.68,36.68,0,0,0-1.6,9.91q0,4,.93,5.42a3.74,3.74,0,0,0,3.36,1.39C267.19,112.06,268.54,111.29,269.88,109.75Z"/><path class="bf9dfa3d-e544-4bcb-94ed-64c4127d1cdd" d="M289.37,116.55q-3.45-3.22-3.44-10.12a41.6,41.6,0,0,1,2.26-12.77,29.72,29.72,0,0,1,7.4-12.06,17.69,17.69,0,0,1,13-5.08q9.24,0,9.24,8.06a15.1,15.1,0,0,1-2.69,8.66A19.85,19.85,0,0,1,308,99.58a22.94,22.94,0,0,1-9.49,2.73c-.12,1.23-.17,2.07-.17,2.52q0,7,5.21,7a11.91,11.91,0,0,0,5-1.26,20.18,20.18,0,0,0,4.87-3.19q-2.26,12.44-14.53,12.44Q292.82,119.79,289.37,116.55Zm15.75-20.37A15.32,15.32,0,0,0,309.66,91a13.54,13.54,0,0,0,1.72-6.59q0-3.45-2.1-3.45c-2,0-3.9,1.78-5.84,5.34a44.42,44.42,0,0,0-4.32,12A10.67,10.67,0,0,0,305.12,96.18Z"/><path class="bf9dfa3d-e544-4bcb-94ed-64c4127d1cdd" d="M325.92,74.84a22.45,22.45,0,0,0,2.77-3.45,5.32,5.32,0,0,0,1-2.6,1.78,1.78,0,0,0-.38-1.09,6.26,6.26,0,0,0-1.13-1.1,8.13,8.13,0,0,1-1.85-1.93,4.76,4.76,0,0,1-.68-2.69,5.84,5.84,0,0,1,1.6-4.24,5.4,5.4,0,0,1,4-1.64A5.61,5.61,0,0,1,337.17,62a12.87,12.87,0,0,1-2.73,7.19,27.1,27.1,0,0,1-7.26,6.93Z"/><path class="bf9dfa3d-e544-4bcb-94ed-64c4127d1cdd" d="M340.62,118.23a10.19,10.19,0,0,1-4.12-4,10.77,10.77,0,0,1-1.34-5.17,8.81,8.81,0,0,1,1.3-4.83,8,8,0,0,1,3.15-3,106.74,106.74,0,0,0,5.71-11.89q2.44-6,4.62-13l12.44-1.68q.42,10.76,1.43,23.27.42,5,.42,7.31a13,13,0,0,1-2.61,8.4,14.57,14.57,0,0,1-6.42,4.71,22.12,22.12,0,0,1-7.78,1.43A13.7,13.7,0,0,1,340.62,118.23Zm9.32-6.93q2.1-1.85,2.1-6a66.75,66.75,0,0,0-.5-7.06q-.84-9.59-1.09-12.86a96.92,96.92,0,0,1-6.81,15.88,3.2,3.2,0,0,1,1.94,2.94,4.39,4.39,0,0,1-1.05,2.86,3.33,3.33,0,0,1-2.65,1.26c-1.18,0-1.93-.36-2.27-1.09a6.78,6.78,0,0,0,1.22,4.45,4.87,4.87,0,0,0,3.91,1.43A7.59,7.59,0,0,0,349.94,111.3Z"/><path class="bf9dfa3d-e544-4bcb-94ed-64c4127d1cdd" d="M392.16,133.52a10.3,10.3,0,0,1-3.74-8.27,11.86,11.86,0,0,1,1.51-5.88,11.29,11.29,0,0,1,4.12-4.25,11,11,0,0,1,5.71-1.55,8,8,0,0,1,5.17,1.59,5.15,5.15,0,0,1,2,4.21,5,5,0,0,1-.93,3.19,5.14,5.14,0,0,0-2.06-1.6,6.61,6.61,0,0,0-2.73-.59,5.4,5.4,0,0,0-4.11,1.68,6.07,6.07,0,0,0-1.6,4.37,6.19,6.19,0,0,0,1.55,4.37,5.11,5.11,0,0,0,3.91,1.68,6.3,6.3,0,0,0,5-2.6,18.42,18.42,0,0,0,3.19-7.73l4.2-18.57H413a15.45,15.45,0,0,1-5.5,4.87,15.2,15.2,0,0,1-7.1,1.68,14.46,14.46,0,0,1-8.57-2.6,16.29,16.29,0,0,1-5.67-7.44,29.37,29.37,0,0,1-2-11.21,35.51,35.51,0,0,1,4-16.85,30.71,30.71,0,0,1,11.09-12,29,29,0,0,1,15.55-4.37q7.14,0,11.3,3.11a10,10,0,0,1,4.16,8.49,8.89,8.89,0,0,1-1.77,5.79A5.66,5.66,0,0,1,424,75.26a6.85,6.85,0,0,1-3-.67,6.11,6.11,0,0,1-2.31-1.94,7.68,7.68,0,0,0,2.56-3.23,10.43,10.43,0,0,0,1-4.5,5.09,5.09,0,0,0-1.47-3.9,5.81,5.81,0,0,0-4.16-1.39q-4.87,0-9.41,4.33a31.36,31.36,0,0,0-7.31,11.3,39.17,39.17,0,0,0-2.77,14.62c0,4.2.67,7.4,2,9.62a6.39,6.39,0,0,0,5.79,3.31q4.54,0,8-4.78t5.58-14l9.92.08-6.14,28.23q-2.69,12.52-7.6,18.4A15.82,15.82,0,0,1,402,136.67Q395.9,136.67,392.16,133.52Z"/><path class="bf9dfa3d-e544-4bcb-94ed-64c4127d1cdd" d="M433.54,116.55q-3.45-3.22-3.45-10.12a41.64,41.64,0,0,1,2.27-12.77,29.7,29.7,0,0,1,7.39-12.06,17.73,17.73,0,0,1,13-5.08q9.24,0,9.24,8.06a15.1,15.1,0,0,1-2.69,8.66,19.85,19.85,0,0,1-7.14,6.34,22.94,22.94,0,0,1-9.5,2.73c-.11,1.68-.16,2.8-.16,3.36q0,4.13,1.42,5.59t4.63,1.47a14,14,0,0,0,7.77-2.1,37.89,37.89,0,0,0,7.1-6.39h2.85Q457,119.8,443.2,119.79,437,119.79,433.54,116.55Zm15.75-20.46A15.34,15.34,0,0,0,453.83,91a13.41,13.41,0,0,0,1.72-6.55q0-3.45-2.1-3.45-3,0-5.92,5.29a40.15,40.15,0,0,0-4.16,12A11,11,0,0,0,449.29,96.09Z"/><path class="bf9dfa3d-e544-4bcb-94ed-64c4127d1cdd" d="M465.25,117.27c-1.65-1.68-2.48-4.21-2.48-7.57a29.08,29.08,0,0,1,.68-5.46l9-42.09,12.44-1.68-9.66,45.37a10.17,10.17,0,0,0-.34,2.69,3.07,3.07,0,0,0,.8,2.39,3.91,3.91,0,0,0,2.65.72,6.4,6.4,0,0,0,4.53-2.06,11.79,11.79,0,0,0,3-5.34h3.53q-3.12,9.08-8,12.31a17.34,17.34,0,0,1-9.66,3.24A8.72,8.72,0,0,1,465.25,117.27Z"/><path class="bf9dfa3d-e544-4bcb-94ed-64c4127d1cdd" d="M488,116.51q-3.19-3.29-3.2-10.25a38.46,38.46,0,0,1,2.48-13.07,30.1,30.1,0,0,1,7.4-11.59,16.29,16.29,0,0,1,11.72-4.75A9,9,0,0,1,511.5,78a3.63,3.63,0,0,1,1.68,3.11v.59l.93-4.46H526.2l-6.05,28.57a10.6,10.6,0,0,0-.33,2.69q0,3.61,3.44,3.61a5.1,5.1,0,0,0,4.08-2.18,16.38,16.38,0,0,0,2.73-5.72h3.53q-3.12,9.08-7.69,12.31a15.83,15.83,0,0,1-9.2,3.24,8,8,0,0,1-5.67-2,8.8,8.8,0,0,1-2.56-5.75,23.47,23.47,0,0,1-5.42,5.58,11.85,11.85,0,0,1-7.1,2.15A10.71,10.71,0,0,1,488,116.51Zm17.6-6.85a10.31,10.31,0,0,0,2.81-5.42l4-19a3.48,3.48,0,0,0-.84-2.15,3.15,3.15,0,0,0-2.61-1c-2.24,0-4.26,1.31-6.05,3.91a31,31,0,0,0-4.2,9.41,37.11,37.11,0,0,0-1.51,9.7c0,2.8.4,4.6,1.22,5.38a4.1,4.1,0,0,0,3,1.18A6.08,6.08,0,0,0,505.58,109.66Z"/><path class="bf9dfa3d-e544-4bcb-94ed-64c4127d1cdd" d="M531.87,117.27c-1.65-1.68-2.47-4.21-2.47-7.57a28.93,28.93,0,0,1,.67-5.46l5-23.6h-2.77l.67-3.37h2.77l2.52-11.59L550.74,64l-2.86,13.27h5l-.67,3.37h-5l-5.38,25.2a10.6,10.6,0,0,0-.34,2.69,3.07,3.07,0,0,0,.8,2.39,3.93,3.93,0,0,0,2.65.72,6.4,6.4,0,0,0,4.53-2.06,11.79,11.79,0,0,0,3-5.34H556q-3.1,9.08-8,12.31a17.39,17.39,0,0,1-9.66,3.24A8.75,8.75,0,0,1,531.87,117.27Z"/><path class="bf9dfa3d-e544-4bcb-94ed-64c4127d1cdd" d="M588.84,116.59a12.56,12.56,0,0,1-2.48-8,8.65,8.65,0,0,1,1.85-5.75,5.37,5.37,0,0,1,4.2-2.23q4.37,0,4.37,3.53a3.6,3.6,0,0,1-1.18,2.65,4,4,0,0,1-2.86,1.13,2.24,2.24,0,0,1-2.27-1.09,7.72,7.72,0,0,0,1.22,4.66,4.27,4.27,0,0,0,3.66,1.64,4.66,4.66,0,0,0,4.07-1.72q1.22-1.73,1.22-6.09a52.2,52.2,0,0,0-.5-6.39q-.84-8.07-1.35-16.47-6,9.17-14.11,11.6a36.67,36.67,0,0,1-3.28,13.52,22.67,22.67,0,0,1-7.1,8.91,16,16,0,0,1-9.53,3.11q-6.22,0-9.83-3.19t-3.62-10.09a41.35,41.35,0,0,1,2.27-12.73,29.72,29.72,0,0,1,7.39-12,17.83,17.83,0,0,1,13.11-5.08q10.67,0,10.76,13.19,6.21-.34,13.69-13.36L611,74.67q.42,10.76,1.43,23.27.42,5,.42,7.31,0,7.56-4.37,11A16.19,16.19,0,0,1,598,119.79Q591.3,119.79,588.84,116.59Zm-14.92-9.53a36.36,36.36,0,0,0,3.7-12.39c-1.34-.51-2-1.77-2-3.79,0-2.18.79-3.64,2.36-4.36a8.32,8.32,0,0,0-.89-3.79,2.56,2.56,0,0,0-2.31-1.09q-2.78,0-5.29,4a35.58,35.58,0,0,0-4.07,9.67,38.13,38.13,0,0,0-1.56,10q0,4,.93,5.42a3.74,3.74,0,0,0,3.36,1.39Q571.24,112.06,573.92,107.06Z"/></g><g id="a1e3fe68-6141-4213-9b8b-8731569c6e5e" data-name="BABE"><path class="b7cb4dd1-67de-46f6-86a0-eed0063a223b" d="M142.28,101.89a5.78,5.78,0,0,1-.07.94l0,.19a6.24,6.24,0,0,1-.39,1.34h0a6.62,6.62,0,0,1-1.52,2.27,6.86,6.86,0,0,1-2.7,1.58V114a5.11,5.11,0,0,1-.57,2.36,5.24,5.24,0,0,1-1.68,1.94,5,5,0,0,1-1.76.8l-.21,0a5.57,5.57,0,0,1-.82.1l-.19.86h0L130,130.22h0l-.57,2.46-1,4.46-2.06,8.94h0l-.4,1.76-.79,3.44h0L123.61,158l-1.7,7.41h0l-2.54,11a4.78,4.78,0,0,1-.71,1.62,4.08,4.08,0,0,1-1.26,1.19,4.38,4.38,0,0,1-1.13.5,4.69,4.69,0,0,1-2,.12l-.54-.12a4.36,4.36,0,0,1-3.1-3.31l-.61-2.67h0l-.77-3.35-2.55-11.05-.31-1.37-2-8.71-.75-3.26h0l-1.41-6.15h0l-.64-2.78L100,130.61l-2.16-9.38-.45-2a5.6,5.6,0,0,1-.81-.1,5.44,5.44,0,0,1-.72-.2,5.3,5.3,0,0,1-2.29-1.6A5.23,5.23,0,0,1,92.39,114v-5.81a6.8,6.8,0,0,1-2-1,7.8,7.8,0,0,1-.7-.59,7,7,0,0,1-.67-.77,6.51,6.51,0,0,1-1.27-3,7.53,7.53,0,0,1-.07-.83v-.11a2.09,2.09,0,0,1,0-.25h0c0-.09,0-.17,0-.25l0-.29s0-.1,0-.14a.5.5,0,0,1,0-.12.36.36,0,0,1,0-.11c0-.08,0-.16,0-.24a1,1,0,0,0,0-.17s0,0,0-.07l.09-.31a.43.43,0,0,1,0,0l.06-.15a3.62,3.62,0,0,1,.13-.35.08.08,0,0,1,0,0,.61.61,0,0,1,0-.12,1.3,1.3,0,0,1,.08-.17h0l.06-.1a.54.54,0,0,1,0-.11,2.12,2.12,0,0,1,.11-.21l.12-.19.14-.22.13-.18.13-.17.13-.17.14-.16.2-.21.19-.2.24-.21.2-.18.22-.16h0l.2-.14.05,0,.08,0,.19-.12.14-.08.23-.13.1-.05.06,0,.12-.06.16-.07.14-.06.15-.06.18-.06.28-.09.23-.06h.06l.06,0,.12,0,.22,0,.23,0h.1l.23,0,.18,0h4.31c0,.23,0,.46,0,.68l0,.34,0,.34,0,.32c0,.12,0,.23,0,.34s0,.22,0,.33,0,.32-.07.49-.05.31-.07.47l-.06.31c0,.1,0,.21,0,.31s-.07.35-.1.52a.17.17,0,0,0,0,.07h0c0,.11,0,.22-.07.33s0,.2-.07.3,0,.2-.07.31,0,.19-.07.29,0,.12,0,.18-.08.33-.13.49,0,.15,0,.22l-.08.26a.24.24,0,0,1,0,.08c0,.09-.06.19-.08.28l0,.15c-.08.29-.17.57-.26.84l-.08.23-.15.46c0,.13-.1.26-.14.39a4,4,0,0,0-.25.85,5.78,5.78,0,0,0-.07.94v.17a.22.22,0,0,0,0,.08v0a.62.62,0,0,0,0,.13h0v.09h0l0,.22a1.55,1.55,0,0,0,0,.21.29.29,0,0,0,0,.09,3.2,3.2,0,0,0,.09.34,1.21,1.21,0,0,0,0,.18.88.88,0,0,1,.05.15c0,.12.11.25.17.37a1.19,1.19,0,0,0,.08.16l.09.15.1.15.1.15,0,.07.08.1a.46.46,0,0,0,.07.07h0a3.19,3.19,0,0,0,.26.26l.12.11.13.1.12.08.09.07h0l0,0,0,0h.05l.09,0a1.59,1.59,0,0,0,.27.12l.13,0,.15,0,.1,0,.11,0,.14,0h.63l.11,0h.07l.11,0,.12,0,.18-.06.06,0h0l.21-.09.08,0,.13-.07h0l.12-.07,0,0,.11-.08.13-.1.2-.18h0l.09-.09,0-.06h0l0,0,.08-.1.18-.23.06-.09.09-.15a3.72,3.72,0,0,0,.19-.34,1.42,1.42,0,0,0,.08-.18c0-.06,0-.12.08-.19a.69.69,0,0,1,0-.13.24.24,0,0,1,0-.08c0-.12.07-.24.1-.37a.29.29,0,0,0,0-.09s0,0,0,0l0-.15a1,1,0,0,0,0-.17s0-.08,0-.13v-.07a.41.41,0,0,0,0-.11v-.1h0v-.23a4.71,4.71,0,0,0-.28-1.79c0-.1-.08-.2-.11-.3s-.07-.2-.11-.31c-.09-.27-.19-.55-.28-.85a1.42,1.42,0,0,1,0-.16c0-.12-.07-.24-.11-.36s-.14-.5-.22-.76-.13-.5-.19-.76l-.12-.47-.09-.42c0-.09,0-.17,0-.25s0-.26-.08-.38,0-.26-.07-.39-.09-.51-.13-.77,0-.29-.07-.44,0-.24,0-.36,0-.37-.07-.57l-.06-.58,0-.32c0-.11,0-.22,0-.33a1.09,1.09,0,0,1,0-.18l0-.37H112.6c0,.21.05.42.07.63s0,.43.07.65c0,.44.07.88.1,1.34,0,.11,0,.22,0,.33s0,.21,0,.31,0,.28,0,.43l0,.43v0c0,.69,0,1.36,0,2v.71c0,.2,0,.39,0,.58s0,.2,0,.3,0,.35,0,.53,0,.33,0,.5,0,.29,0,.43l0,.45,0,.49c0,.46-.07.92-.12,1.36l0,.36c0,.13,0,.25,0,.38s0,.08,0,.12,0,.29,0,.44,0,.09,0,.14,0,.26-.05.39c-.09.68-.19,1.33-.3,2,0,.24-.07.47-.12.7l-.06.33h0c0,.1,0,.2-.05.29s0,.22-.07.33c-.06.32-.12.62-.19.92,0,.13,0,.25-.08.37s-.05.24-.08.36-.11.48-.17.71-.11.44-.16.65L111,116h0l0,.1-.09.33c0,.12-.07.24-.1.35s-.06.22-.09.33a6.48,6.48,0,0,0-.28,1.21,9.31,9.31,0,0,0-.08,1.31v.24a.91.91,0,0,0,0,.17v.07a.19.19,0,0,0,0,.08,1.62,1.62,0,0,0,0,.22,9.35,9.35,0,0,0,.18,1.1c0,.06,0,.12,0,.18l0,.07s0,0,0,.07l.06.22c.05.16.11.32.17.48l.09.2.12.26a1.14,1.14,0,0,0,.1.19,1.28,1.28,0,0,0,.11.2.86.86,0,0,0,.1.16,4.14,4.14,0,0,0,.5.65l.13.14.27.24.09.07.11.08.06,0a3.48,3.48,0,0,0,.47.24l.27.1.1,0h0l.08,0h.08a2.43,2.43,0,0,0,.38,0c2,0,3.63-2.5,3.63-5.58,0-.13,0-.25,0-.38a5.37,5.37,0,0,0,0-.7,1.64,1.64,0,0,0,0-.22,1,1,0,0,0,0-.17s0-.09,0-.13a.43.43,0,0,0,0,0s0-.09,0-.13,0-.17,0-.26,0-.13-.05-.19,0,0,0-.06a2,2,0,0,0-.07-.23c-.11-.37-.22-.77-.33-1.19l-.11-.41c0-.09,0-.18-.07-.28s-.07-.25-.1-.38-.06-.27-.1-.41v0a2,2,0,0,1,0-.24c0-.16-.08-.32-.11-.48l-.18-.79c-.14-.68-.27-1.4-.4-2.14l-.06-.36c-.08-.48-.15-1-.22-1.47,0-.32-.08-.63-.12-1,0-.14,0-.28,0-.42s0-.45-.08-.68l-.09-1.13a.49.49,0,0,1,0-.12v-.15h0v0c0-.08,0-.15,0-.23s0-.14,0-.21c0-.33,0-.67,0-1l0-.42a2.62,2.62,0,0,0,0-.28c0-.18,0-.36,0-.53s0-.37,0-.55c0-.88,0-1.78,0-2.71l0-.67c0-.14,0-.28,0-.42l0-.44c0-.5.07-1,.11-1.46v-.11c0-.14,0-.28,0-.42s0-.43.07-.64h9.36c0,.43.06.86.08,1.31,0,.23,0,.46,0,.69s0,.59,0,.88v.23c0,.21,0,.41,0,.61v.3c0,.14,0,.29,0,.44,0,.35,0,.69-.08,1v0c0,.26,0,.51-.08.76s0,.51-.09.76-.06.44-.09.66-.12.69-.18,1-.17.9-.27,1.31l-.09.41-.06.22c0,.1,0,.18-.07.27s-.09.35-.13.52a2.17,2.17,0,0,0-.07.24l0,0h0c0,.09,0,.18-.08.26l-.18.61-.18.56-.09.25a.29.29,0,0,0,0,.09s0,0,0,0a.43.43,0,0,0,0,.11v0a.36.36,0,0,0,0,.11.29.29,0,0,0,0,.09.5.5,0,0,0,0,.12v0s0,.07,0,.11v0s0,.07,0,.11,0,.09,0,.14,0,.07,0,.11V110a1.09,1.09,0,0,0,0,.18c0,2.08,1.25,3.76,2.79,3.76h.28l.14,0a2.24,2.24,0,0,0,.5-.16l.09,0a2.32,2.32,0,0,0,.43-.29,2101723237111.33,2101723237111.33,0,0,0,.22-.2,1.14,1.14,0,0,0,.11-.11h0l.09-.11.1-.12.09-.14.07-.1.07-.12,0-.09a4,4,0,0,0,.3-.7l.06-.22a.84.84,0,0,0,0-.17,4.85,4.85,0,0,0,.09-.55c0-.06,0-.12,0-.19s0-.25,0-.38a4.61,4.61,0,0,0-.25-1.69c-.24-.72-.5-1.58-.74-2.55l0-.15a.19.19,0,0,1,0-.07l-.09-.38q-.09-.41-.18-.84c0-.14-.06-.29-.08-.43s0-.18,0-.26c-.08-.45-.16-.91-.22-1.39,0-.2-.06-.4-.08-.61s0-.27,0-.41,0-.27,0-.4,0-.22,0-.32a2.28,2.28,0,0,1,0-.26l0-.38c0-.24,0-.48,0-.73s0-.29,0-.44,0-.59,0-.9v-.65c0-.11,0-.23,0-.35s0-.22,0-.34c0-.45,0-.88.08-1.31h9.29a5.14,5.14,0,0,1,.78.07l.19,0h0l.21,0c.22,0,.43.11.64.18l.12,0,.21.07.2.08h0l.18.08.31.15,0,0h0l.07,0,.09,0,.08,0h0l.15.09a0,0,0,0,1,0,0l.12.07h0l.06,0,.16.11.17.13h0l.24.19h0l0,0,.2.19.14.13a6.57,6.57,0,0,1,1.93,4.41h0s0,.1,0,.15h0Z"/><path class="a140051b-42d3-43c7-82ab-ce5aac994eb9" d="M142.28,101.79c0-.05,0-.1,0-.15h0S142.28,101.74,142.28,101.79Z"/><path class="e8c0491e-e5eb-4140-9d2b-a003822ba1ae" d="M115.31,66.7l-.49.35-.38.29-.42.34-.36.31-.08.07-.37.33-.44.42-.33.34-.37.39-.33.36c-.27.31-.53.62-.78.94l-.22.29c-.13.18-.26.35-.38.53s-.18.25-.27.38l0,.07-.27.43h0l-.27.45c-.13.21-.25.43-.37.65a.71.71,0,0,0-.08.15l-.2.37c-.17.35-.34.71-.5,1.07a2.44,2.44,0,0,0-.1.24A19.93,19.93,0,0,0,107,79.63l-.09.51c-.08.47-.13.94-.18,1.42,0,.06,0,.12,0,.18s0,.41,0,.62,0,.31,0,.46,0,.09,0,.14v.91c0,.12,0,.24,0,.36s0,.49,0,.74h0v.09c0,.14,0,.27,0,.41s0,.14,0,.2h0v.07a1.36,1.36,0,0,1,0,.2c0,.11,0,.22,0,.33l.06.42c0,.25.08.49.13.74s.07.3.1.44v0c0,.06,0,.12,0,.18s0,0,0,0,0,.23.08.34l.15.56,0,.09c0,.06,0,.12,0,.18s0,.11.05.16l.15.46a1.55,1.55,0,0,0,.08.23v0c0,.13.09.25.13.37l.06.15,0,0,.12.3s0,0,0,.06h0c.07.18.14.34.22.51l.21.48.09.19.15.29c.07.15.14.3.22.44s.19.34.28.51l.26.45,0,0c.09.14.17.28.26.41l.24.37.09.13c.09.13.17.26.26.38H100.18l0,.37a1.09,1.09,0,0,0,0,.18c0,.11,0,.22,0,.33l0,.32.06.58c0,.2,0,.38.07.57s0,.24,0,.36,0,.29.07.44.08.52.13.77,0,.26.07.39,0,.25.08.38,0,.16,0,.25l.09.42.12.47c.06.26.13.52.19.76s.15.52.22.76.07.24.11.36a1.42,1.42,0,0,0,0,.16c.09.3.19.58.28.85,0,.11.07.21.11.31s.07.2.11.3a4.71,4.71,0,0,1,.28,1.79v.23h0v.1a.41.41,0,0,1,0,.11v.07s0,.09,0,.13a1,1,0,0,1,0,.17l0,.15s0,0,0,0a.29.29,0,0,1,0,.09c0,.13-.06.25-.1.37a.24.24,0,0,0,0,.08.69.69,0,0,0,0,.13c0,.07-.05.13-.08.19a1.42,1.42,0,0,1-.08.18,3.72,3.72,0,0,1-.19.34l-.09.15-.06.09-.18.23-.08.1,0,0,0,.06-.09.09h0l-.2.18-.13.1-.11.08-.16.1-.21.12-.21.09-.09,0-.18.06-.12,0-.11,0H99.6l-.11,0h-.63l-.14,0-.11,0-.1,0-.15,0-.13,0a1.59,1.59,0,0,1-.27-.12l-.09,0-.05,0,0,0,0,0-.09-.07-.12-.08-.13-.1-.12-.11a3.19,3.19,0,0,1-.26-.26h0l-.07-.07-.08-.1,0-.07-.1-.15-.1-.15-.09-.15c0-.06-.06-.11-.08-.16s-.12-.25-.17-.37a.88.88,0,0,0-.05-.15,1.21,1.21,0,0,1,0-.18,3.2,3.2,0,0,1-.09-.34.29.29,0,0,1,0-.09,1.55,1.55,0,0,1,0-.21l0-.22h0v-.1a.76.76,0,0,1,0-.15.22.22,0,0,1,0-.08v-.17a5.78,5.78,0,0,1,.07-.94,4,4,0,0,1,.25-.85c0-.13.09-.26.14-.39l.15-.46.08-.23c.09-.27.18-.55.26-.84l0-.15c0-.09.05-.19.08-.28a.24.24,0,0,0,0-.08l.08-.26c0-.07,0-.15,0-.22s.09-.32.13-.49,0-.12,0-.18,0-.19.07-.29,0-.21.07-.31,0-.2.07-.3,0-.22.07-.33h0a.17.17,0,0,1,0-.07c0-.17.07-.35.1-.52s0-.21,0-.31l.06-.31c0-.16,0-.31.07-.47s0-.33.07-.49,0-.22,0-.33,0-.22,0-.34l0-.32,0-.34,0-.34c0-.22,0-.45,0-.68H93.91l-.18,0-.23,0h-.1l-.23,0-.22,0-.24,0-.23.06-.28.09-.18.06-.15.06-.14.06-.16.07-.12.06-.16.07-.23.13-.14.08-.19.12-.08,0-.25.17h0l-.22.16-.2.18-.24.21-.19.2-.2.21-.14.16-.13.17-.13.17-.13.18-.14.22-.12.19a2.12,2.12,0,0,0-.11.21.54.54,0,0,0,0,.11l-.06.1h0a1.3,1.3,0,0,0-.08.17c0,.06,0,.11-.07.17a3.62,3.62,0,0,0-.13.35l-.06.15a.43.43,0,0,0,0,0l-.09.31s0,0,0,.07a1,1,0,0,1,0,.17c0,.08,0,.16,0,.24a1.57,1.57,0,0,0,0,.23s0,.09,0,.14l0,.29a2,2,0,0,0,0,.25h0a2.09,2.09,0,0,0,0,.25V102a5.14,5.14,0,0,1-2.41-9.34c-.14-.26-.27-.53-.39-.8A20.73,20.73,0,0,1,84,89.55a20.3,20.3,0,0,1-.8-3.78c-.07-.59-.11-1.19-.13-1.8,0-.18,0-.37,0-.55A20.44,20.44,0,0,1,101.14,63.1a20.83,20.83,0,0,1,2.38-.14A20.32,20.32,0,0,1,115.31,66.7Z"/><path class="aaf59814-d2e2-4427-b77f-7cc3ad3b108f" d="M144.28,104.9a19.18,19.18,0,0,0,1.59,8.64,2.86,2.86,0,0,1,.23,1.24,2.59,2.59,0,0,1-.07.63,2.65,2.65,0,0,1-2.55,2.11,2.68,2.68,0,0,1-2.61-2.74,2.87,2.87,0,0,1,.25-1.24,19.16,19.16,0,0,0,1.23-3.88,18.29,18.29,0,0,0,.36-4.76,15.43,15.43,0,0,0-.2-1.89c0-.14,0-.28-.07-.42s-.1-.54-.16-.8h0c0-.05,0-.1,0-.15a6.62,6.62,0,0,0-6.59-6.35h-9.1c0,.43-.06.86-.08,1.31s0,.9,0,1.34,0,.61,0,.9,0,.29,0,.44,0,.49,0,.73l0,.38a2.28,2.28,0,0,0,0,.26c0,.1,0,.21,0,.32s0,.27,0,.4,0,.28,0,.41,0,.41.08.61c.06.48.14.94.22,1.39,0,.08,0,.17,0,.26s0,.29.08.43q.09.44.18.84l.09.38c0,.07,0,.15,0,.22.24,1,.5,1.83.74,2.55a4.61,4.61,0,0,1,.25,1.69c0,.13,0,.26,0,.38s0,.13,0,.19a4.85,4.85,0,0,1-.09.55.84.84,0,0,1,0,.17l-.06.22a4,4,0,0,1-.3.7l0,.09-.07.12-.07.1-.09.14-.1.12-.09.11h0l-.11.11a2101723237111.33,2101723237111.33,0,0,1-.22.2,2.32,2.32,0,0,1-.43.29l-.09,0a2.24,2.24,0,0,1-.5.16l-.14,0h-.28c-1.54,0-2.79-1.68-2.79-3.76a4.83,4.83,0,0,1,.28-1.69l.18-.56.18-.61a2.76,2.76,0,0,0,.08-.27l0,0c.09-.32.18-.67.27-1l.06-.22.09-.41c.1-.41.19-.85.27-1.31s.12-.67.18-1,.06-.43.09-.66.07-.5.09-.76.06-.5.08-.76v0a32.77,32.77,0,0,0,.12-3.49c0-.23,0-.46,0-.69,0-.45,0-.88-.08-1.31H115.4c0,.21-.05.43-.07.64s0,.28,0,.42c-.05.51-.09,1-.12,1.57l0,.44c0,.14,0,.28,0,.42l0,.67c0,.93,0,1.83,0,2.71,0,.18,0,.36,0,.55s0,.35,0,.53a2.62,2.62,0,0,1,0,.28l0,.42c0,.33,0,.67,0,1,0,.07,0,.14,0,.21s0,.36,0,.54l.09,1.13c0,.23,0,.46.08.68s0,.28,0,.42c0,.33.08.64.12,1,.07.5.14,1,.22,1.47l.06.36c.13.74.26,1.46.4,2.14l.18.79c0,.16.07.32.11.48a2,2,0,0,0,0,.24c0,.15.08.3.11.45s.07.26.1.38,0,.19.07.28l.11.41c.11.42.22.82.33,1.19a2,2,0,0,1,.07.23s0,0,0,.06,0,.13.05.19,0,.17,0,.26,0,.08,0,.13a.43.43,0,0,1,0,0s0,.09,0,.13a1,1,0,0,1,0,.17,1.64,1.64,0,0,1,0,.22,5.37,5.37,0,0,1,0,.7c0,.13,0,.25,0,.38,0,3.08-1.63,5.58-3.63,5.58a2.43,2.43,0,0,1-.38,0h-.08l-.23-.06L113,125a3.48,3.48,0,0,1-.47-.24l-.06,0-.11-.08-.09-.07-.27-.24-.13-.14a4.14,4.14,0,0,1-.5-.65.86.86,0,0,1-.1-.16,1.28,1.28,0,0,1-.11-.2,1.14,1.14,0,0,1-.1-.19l-.12-.26-.09-.2c-.06-.16-.12-.32-.17-.48l-.06-.22s0-.05,0-.07l0-.07c0-.06,0-.12,0-.18a9.35,9.35,0,0,1-.18-1.1,1.62,1.62,0,0,1,0-.22.19.19,0,0,1,0-.08c0-.15,0-.32,0-.48a9.31,9.31,0,0,1,.08-1.31,6.48,6.48,0,0,1,.28-1.21c0-.11.06-.21.09-.33s.07-.23.1-.35l.09-.33.21-.78c.05-.21.11-.43.16-.65s.11-.47.17-.71,0-.24.08-.36.06-.24.08-.37c.07-.3.13-.6.19-.92,0-.11,0-.22.07-.33s0-.19.05-.29h0c.07-.33.13-.68.18-1,.11-.63.21-1.28.3-2,0-.13,0-.26.05-.39s0-.09,0-.14,0-.37.07-.56,0-.25,0-.38l0-.36c0-.44.09-.9.12-1.36l0-.49,0-.45c0-.14,0-.29,0-.43s0-.33,0-.5,0-.35,0-.53,0-.2,0-.3,0-.38,0-.58v-.71c0-.66,0-1.33,0-2,0-.16,0-.32,0-.47,0-.37,0-.72-.06-1.07s-.06-.9-.1-1.34c0-.22,0-.43-.07-.65s0-.42-.07-.63h-2.17a20.56,20.56,0,0,1-3.4-7.85c-.09-.49-.18-1-.24-1.49a21.09,21.09,0,0,1-.15-2.53,20.44,20.44,0,0,1,8.67-16.72,20,20,0,0,1,3-1.76,20.45,20.45,0,0,1,29.17,16.75c.05.57.08,1.15.08,1.73a20.47,20.47,0,0,1-2,8.81c-.2.42-.42.84-.65,1.24a5.12,5.12,0,0,1,2.49,4.21,1.34,1.34,0,0,1,0,.2,5.14,5.14,0,0,1-2.85,4.6A18.88,18.88,0,0,0,144.28,104.9Z"/><path class="a62b7d16-7df3-473c-abd7-f080d36e0cd3" d="M142.18,103h.33"/><path class="e70f46f3-ca6b-4a8b-85ca-69c18464de34" d="M133.31,63.92a20.58,20.58,0,0,0-6.21-1,20.32,20.32,0,0,0-11.79,3.74,20.47,20.47,0,0,0-22.23-.88,20.2,20.2,0,0,1,40.23-1.9Z"/><g class="bc087e80-90a8-4996-b0a0-41388fa5b265"><path class="a62b7d16-7df3-473c-abd7-f080d36e0cd3" d="M88.81,98.21c0,.1.09.21.13.31,1,2.37,1.91,4.84,2.83,7.42s1.82,5.25,2.66,8q.75,2.46,1.46,5"/><path class="a62b7d16-7df3-473c-abd7-f080d36e0cd3" d="M110,173.82h0c.09-1.61.16-3.25.2-4.91,0-.63,0-1.27,0-1.91s0-1.49,0-2.23c0-3.4-.08-6.72-.27-10-.22-3.85-.57-7.61-1-11.27-.41-3.32-.92-6.56-1.49-9.71-.21-1.15-.43-2.29-.66-3.41-.4-1.93-.81-3.81-1.26-5.67q-1-4.17-2.13-8.09l-.2-.68-.24-.8c-.57-1.93-1.17-3.81-1.78-5.64h0"/><path class="a62b7d16-7df3-473c-abd7-f080d36e0cd3" d="M95.77,95.29q.95,2.19,1.87,4.52h0"/><path class="a62b7d16-7df3-473c-abd7-f080d36e0cd3" d="M113.45,125.11c.16.64.3,1.3.45,2,.64,2.86,1.23,5.81,1.75,8.83.55,3.24,1,6.57,1.39,10q.64,5.77.89,11.85.18,4.56.11,9.29,0,2.19-.12,4.32c-.11,2.73-.29,5.39-.52,8"/><path class="a62b7d16-7df3-473c-abd7-f080d36e0cd3" d="M111,116h0q-.82-2.82-1.71-5.51c-.84-2.57-1.72-5-2.61-7.42s-1.91-4.9-2.89-7.19c-.07-.18-.15-.37-.23-.55"/><polyline class="a62b7d16-7df3-473c-abd7-f080d36e0cd3" points="106.76 85.68 106.76 85.68 106.76 85.68 106.76 85.67 106.76 85.67"/><path class="a62b7d16-7df3-473c-abd7-f080d36e0cd3" d="M111.21,95.29c.44,1,.89,2.1,1.33,3.19.12.31.25.62.38.93"/><path class="a62b7d16-7df3-473c-abd7-f080d36e0cd3" d="M115.19,105.4h0a1.12,1.12,0,0,0,0,.13q1.35,3.75,2.6,7.78,1.19,3.81,2.25,7.88c.69,2.65,1.34,5.38,1.92,8.19s1.18,6,1.66,9.08q.79,5.11,1.3,10.5c.06.77.13,1.54.19,2.31h0"/><path class="a62b7d16-7df3-473c-abd7-f080d36e0cd3" d="M119,95.29c.77,1.81,1.54,3.68,2.3,5.63s1.53,4,2.26,6.11h0"/><path class="a62b7d16-7df3-473c-abd7-f080d36e0cd3" d="M130,130.22h0q-.72-3.48-1.54-6.79h0c-.65-2.64-1.34-5.19-2.07-7.67-.19-.63-.37-1.25-.56-1.86"/><path class="a62b7d16-7df3-473c-abd7-f080d36e0cd3" d="M135.32,118.32c0-.17-.09-.34-.14-.5-.7-2.49-1.44-4.9-2.2-7.23s-1.63-4.79-2.47-7.06c-.92-2.46-1.86-4.81-2.8-7.06-.17-.4-.34-.79-.5-1.18"/><path class="a62b7d16-7df3-473c-abd7-f080d36e0cd3" d="M141.55,113a2,2,0,0,0-.08-.26"/><path class="a62b7d16-7df3-473c-abd7-f080d36e0cd3" d="M139.64,107.16c-.13-.36-.26-.72-.38-1.08q-1.26-3.51-2.56-6.75c-.56-1.38-1.11-2.73-1.67-4"/><path class="a62b7d16-7df3-473c-abd7-f080d36e0cd3" d="M145.67,101.85l0-.08"/><line class="a62b7d16-7df3-473c-abd7-f080d36e0cd3" x1="147.19" y1="87.32" x2="147.19" y2="87.32"/><path class="a62b7d16-7df3-473c-abd7-f080d36e0cd3" d="M112.93,179.51c1.61-2.83,3.28-5.55,5-8.19q2-3,4-5.87h0"/><path class="a62b7d16-7df3-473c-abd7-f080d36e0cd3" d="M109.21,170.47l1-1.56q3.75-5.91,7.75-11.2,3.46-4.59,7-8.74c.32-.38.65-.75,1-1.13"/><path class="a62b7d16-7df3-473c-abd7-f080d36e0cd3" d="M106.66,159.42c1.09-1.58,2.2-3.12,3.31-4.63,2.31-3.13,4.68-6.1,7.07-8.93q3.3-3.87,6.64-7.39c1.92-2,3.85-3.95,5.77-5.79"/><path class="a62b7d16-7df3-473c-abd7-f080d36e0cd3" d="M141.55,113l-.26.2"/><path class="a62b7d16-7df3-473c-abd7-f080d36e0cd3" d="M104.34,149.34q2.28-3,4.61-5.82,3.31-4,6.7-7.63,3.18-3.42,6.37-6.5t6.46-6h0c1.3-1.14,2.58-2.24,3.86-3.29h0"/><path class="a62b7d16-7df3-473c-abd7-f080d36e0cd3" d="M133.56,119.12c.55-.44,1.08-.88,1.62-1.3l1.82-1.44"/><path class="a62b7d16-7df3-473c-abd7-f080d36e0cd3" d="M141.79,104.36h0c-.83.55-1.67,1.12-2.53,1.72q-3,2.08-6.28,4.51-2.86,2.14-5.84,4.57c-.24.19-.49.39-.73.6l-1.07.88c-1.73,1.45-3.48,3-5.24,4.56q-3.09,2.77-6.2,5.86c-1.82,1.8-3.64,3.69-5.44,5.65l-1,1.1c-.38.42-.77.84-1.15,1.27q-2.07,2.35-4.13,4.84h0"/><path class="a62b7d16-7df3-473c-abd7-f080d36e0cd3" d="M145.67,101.85l-1.11.71"/><path class="a62b7d16-7df3-473c-abd7-f080d36e0cd3" d="M100,130.61q2.75-3.06,5.51-5.88c1.61-1.64,3.22-3.21,4.83-4.73"/><path class="a62b7d16-7df3-473c-abd7-f080d36e0cd3" d="M116.58,114.4l1.27-1.08c1.72-1.46,3.43-2.85,5.11-4.17"/><path class="a62b7d16-7df3-473c-abd7-f080d36e0cd3" d="M127.42,105.76c1-.77,2.07-1.52,3.09-2.23,2.14-1.52,4.21-2.92,6.19-4.2,1.2-.79,2.37-1.53,3.5-2.23"/><path class="a62b7d16-7df3-473c-abd7-f080d36e0cd3" d="M112.6,107.68c-1.08.89-2.18,1.81-3.28,2.77-2,1.74-4.06,3.57-6.11,5.51-1.77,1.68-3.56,3.44-5.34,5.27"/><path class="a62b7d16-7df3-473c-abd7-f080d36e0cd3" d="M129.49,95.29l-1.78,1.18-1.23.82h0"/><path class="a62b7d16-7df3-473c-abd7-f080d36e0cd3" d="M124.86,98.4c-1.15.81-2.33,1.64-3.53,2.52q-3,2.16-6.08,4.62l0,0"/><path class="a62b7d16-7df3-473c-abd7-f080d36e0cd3" d="M102.41,106.64h0c1.44-1.25,2.88-2.46,4.3-3.61,2-1.61,3.92-3.12,5.83-4.55l.32-.24"/><path class="a62b7d16-7df3-473c-abd7-f080d36e0cd3" d="M98.36,110.25q-2,1.78-3.93,3.71"/><path class="a62b7d16-7df3-473c-abd7-f080d36e0cd3" d="M116.93,95.29c-.55.38-1.1.78-1.65,1.17"/><path class="a62b7d16-7df3-473c-abd7-f080d36e0cd3" d="M104.54,95.29l-.72.55c-1.09.84-2.19,1.71-3.3,2.6"/><path class="a62b7d16-7df3-473c-abd7-f080d36e0cd3" d="M97.36,101c-1.84,1.55-3.71,3.19-5.59,4.9l-1.38,1.28"/><path class="a62b7d16-7df3-473c-abd7-f080d36e0cd3" d="M108.64,92.26h0"/><line class="a62b7d16-7df3-473c-abd7-f080d36e0cd3" x1="106.7" y1="84.97" x2="106.7" y2="84.97"/><path class="a62b7d16-7df3-473c-abd7-f080d36e0cd3" d="M88.33,99.05h0l.61-.53q1.78-1.55,3.54-3"/></g><g class="a44bd6d2-7a4f-425e-856b-dd648a30f6cd"><path d="M113.15,48.55a17.36,17.36,0,0,0-17.3,15.87l5.22-1a17.38,17.38,0,0,1,17-13.75c.46,0,.91,0,1.36.06A17.17,17.17,0,0,0,113.15,48.55Z"/></g><g class="a44bd6d2-7a4f-425e-856b-dd648a30f6cd"><path d="M127.5,65.36a17.36,17.36,0,0,0-12,29.93h3.84a17.37,17.37,0,0,1,13-28.82c.46,0,.91,0,1.36.06A17.17,17.17,0,0,0,127.5,65.36Z"/></g><g class="a44bd6d2-7a4f-425e-856b-dd648a30f6cd"><path d="M104,65.36A17.36,17.36,0,0,0,92,95.29h3.84a17.37,17.37,0,0,1,13.06-28.82c.45,0,.91,0,1.36.06A17.21,17.21,0,0,0,104,65.36Z"/></g><path class="a449d751-43d2-48ef-843f-9de5c9cd590b" d="M85.91,93.67c-.47-.06-.9.66-1.21,1.18a3.8,3.8,0,0,0-.58,1.64c0,.52,0,1.24.21,1.27s.24-.54.67-1.32c.73-1.32,1.6-1.63,1.46-2.24A.72.72,0,0,0,85.91,93.67Z"/><path class="a449d751-43d2-48ef-843f-9de5c9cd590b" d="M113.22,111.93s0,.24-.13.71-.14.75-.51,2.11c-.51,1.88-.55,1.77-.73,2.59a9.13,9.13,0,0,0-.27,2,8.07,8.07,0,0,0,.23,1.87,6.13,6.13,0,0,0,.82,2c.5.77.8.81.91.82a.87.87,0,0,0,.77-.46c.29-.55-.23-1.33-.55-1.82s-.58-.56-.86-1.09a4.06,4.06,0,0,1-.41-1.73,7.24,7.24,0,0,1,.09-1.72c0-.15,0-.29.32-1.46.31-1.33.29-1.23.32-1.36A5.72,5.72,0,0,0,113.22,111.93Z"/><path class="a449d751-43d2-48ef-843f-9de5c9cd590b" d="M98.59,101.08s0,.17-.13.49A9.09,9.09,0,0,1,98,103c-.52,1.29-.55,1.21-.73,1.78a4,4,0,0,0-.27,1.34,3.51,3.51,0,0,0,.22,1.28,3.6,3.6,0,0,0,.82,1.37c.5.53.81.56.91.57a1,1,0,0,0,.77-.32c.29-.38-.22-.91-.54-1.25s-.58-.38-.87-.74a2.14,2.14,0,0,1-.41-1.19,3.46,3.46,0,0,1,.1-1.19,9.09,9.09,0,0,1,.31-1c.31-.91.3-.84.32-.93A2.67,2.67,0,0,0,98.59,101.08Z"/><path class="a449d751-43d2-48ef-843f-9de5c9cd590b" d="M125,105.21s0,.17-.09.48a10.35,10.35,0,0,1-.38,1.4c-.38,1.25-.42,1.18-.55,1.73a4.61,4.61,0,0,0-.18,1.29,4.49,4.49,0,0,0,.25,1.22,3.78,3.78,0,0,0,.76,1.28c.45.49.72.51.81.51a.8.8,0,0,0,.65-.33c.23-.37-.23-.87-.52-1.17s-.52-.36-.78-.69a2.21,2.21,0,0,1-.4-1.12,3.74,3.74,0,0,1,0-1.14c0-.09,0-.19.24-1s.21-.82.23-.9A2.85,2.85,0,0,0,125,105.21Z"/><path class="a449d751-43d2-48ef-843f-9de5c9cd590b" d="M143,111.15s0,.12-.08.33a5.52,5.52,0,0,1-.33,1c-.34.87-.37.82-.48,1.2a2.73,2.73,0,0,0-.16.91,2.53,2.53,0,0,0,.84,1.73,1,1,0,0,0,.68.34.76.76,0,0,0,.56-.23c.19-.26-.2-.6-.44-.81s-.43-.24-.65-.47a1.27,1.27,0,0,1-.33-.78,2,2,0,0,1,0-.79,6.62,6.62,0,0,1,.2-.68l.21-.63A1.64,1.64,0,0,0,143,111.15Z"/><rect class="a449d751-43d2-48ef-843f-9de5c9cd590b" x="103.86" y="104.24" width="7.3" height="1.94" rx="0.97"/><rect class="a449d751-43d2-48ef-843f-9de5c9cd590b" x="116.48" y="104.24" width="6.34" height="1.94" rx="0.97"/><rect class="a449d751-43d2-48ef-843f-9de5c9cd590b" x="128.88" y="104.24" width="10.62" height="1.94" rx="0.97"/><rect class="a449d751-43d2-48ef-843f-9de5c9cd590b" x="119.91" y="115.16" width="13.95" height="1.48" rx="0.74"/><rect class="a449d751-43d2-48ef-843f-9de5c9cd590b" x="94.58" y="115.22" width="13.95" height="1.48" rx="0.74"/><path class="a449d751-43d2-48ef-843f-9de5c9cd590b" d="M121.6,95c-1.28.08-2.57.22-3.85.33a13.83,13.83,0,0,0-1.7.2l-.56.13c0,.18,0,.37-.07.54a18,18,0,0,0-.07,1.94c0,1.3.09,2.6.15,3.89,0,.87.13,1.73.16,2.59a38.37,38.37,0,0,1,4.74-6,28.2,28.2,0,0,1,3.81-3.3l.58-.4C123.73,94.92,122.67,95,121.6,95Z"/><path class="a449d751-43d2-48ef-843f-9de5c9cd590b" d="M117.59,177a25.59,25.59,0,0,1-1.87-2.21,38.79,38.79,0,0,1-4.45-7.58c-.36-.79-.7-1.61-1-2.45a56.39,56.39,0,0,1-2.24-7.25,67.68,67.68,0,0,1-1.67-10.75,76,76,0,0,1-.07-10.9c0-.26,0-.53,0-.79.12-1.58.28-3.15.49-4.68a72.69,72.69,0,0,1,1.64-8.55,67.33,67.33,0,0,1,2.22-7.12c.44-1.17.92-2.32,1.41-3.42.1-.22.2-.43.29-.64a2.29,2.29,0,0,1-.09-.28,13.66,13.66,0,0,1,.26-4.46,26.43,26.43,0,0,0-.15-4.53c-.06-1.52-.18-3-.1-4.54a15.58,15.58,0,0,1,.16-1.86,1.34,1.34,0,0,1-.4.06,50.08,50.08,0,0,1-6-.24,1.43,1.43,0,0,1-1.3.73,24.3,24.3,0,0,0-4.16-.46c0,.25,0,.51.06.76a21,21,0,0,1,0,3.17c-.06.63-.14,1.27-.25,1.9a1.18,1.18,0,0,1,.68.64,5.42,5.42,0,0,1,.44,2.21v0a1.58,1.58,0,0,1,.53.76,5.71,5.71,0,0,1,.24,1.69,1.56,1.56,0,0,1-.52,1.12,3.25,3.25,0,0,1-.35,1.26,2.37,2.37,0,0,1-3.13,1.07,4.26,4.26,0,0,1-1.84-2.49c-.88-2.56.79-5.32,1.08-7.86a27.14,27.14,0,0,0,.05-3.93,16.59,16.59,0,0,1-3-.49,1.26,1.26,0,0,1-.79.44c-1,.18-2.09.26-3.1.52-.72.44-1.32,1-2,1.52v.07c0,1.34-.24,3.36-1.33,4.16a.93.93,0,0,1,0,.29l.43.07a7.53,7.53,0,0,0,.07.83,6.51,6.51,0,0,0,1.27,3,7,7,0,0,0,.67.77,7.8,7.8,0,0,0,.7.59,6.8,6.8,0,0,0,2,1V114a5.23,5.23,0,0,0,1.21,3.35,5.3,5.3,0,0,0,2.29,1.6,5.44,5.44,0,0,0,.72.2,5.6,5.6,0,0,0,.81.1l.45,2,2.16,9.38,1.51,6.53.64,2.78h0l1.41,6.15h0l.75,3.26,2,8.71.31,1.37,2.55,11.05.77,3.35h0l.61,2.67a4.36,4.36,0,0,0,3.1,3.31l.54.12a4.69,4.69,0,0,0,2-.12,4.38,4.38,0,0,0,1.13-.5,4.08,4.08,0,0,0,1.26-1.19C118.3,177.76,117.94,177.39,117.59,177Z"/><polygon class="f9564b29-f1dd-463f-a0a4-6314e98b2c01" points="135.33 41.09 132.62 49.17 126.3 52.59 129.01 44.51 135.33 41.09"/><path class="f9564b29-f1dd-463f-a0a4-6314e98b2c01" d="M142,17.64l-4.85,2.63.67-2a2.19,2.19,0,0,1,2.76-1.38l.52.18A2.13,2.13,0,0,1,142,17.64Z"/><polygon class="a2edd164-0d8f-4fdf-9ebd-47422b3678e9" points="138.04 33.01 135.33 41.09 129.01 44.51 131.72 36.43 138.04 33.01"/><polygon class="a2edd164-0d8f-4fdf-9ebd-47422b3678e9" points="132.62 49.17 129.91 57.25 123.58 60.67 126.3 52.59 132.62 49.17"/><polygon class="f9564b29-f1dd-463f-a0a4-6314e98b2c01" points="140.75 24.93 138.04 33.01 131.72 36.43 134.43 28.35 140.75 24.93"/><path class="f9564b29-f1dd-463f-a0a4-6314e98b2c01" d="M129.91,57.25,128,63a28,28,0,0,0-5.25.19l.84-2.51Z"/><path class="a2edd164-0d8f-4fdf-9ebd-47422b3678e9" d="M142.46,19.82l-1.71,5.11-6.32,3.42,2.71-8.08L142,17.64A2.16,2.16,0,0,1,142.46,19.82Z"/></g></svg>